<?xml version="1.0" encoding="utf-8"?>
<!-- Generator: Adobe Illustrator 21.0.0, SVG Export Plug-In . SVG Version: 6.00 Build 0)  -->
<svg version="1.1" id="Layer_1" xmlns="http://www.w3.org/2000/svg" xmlns:xlink="http://www.w3.org/1999/xlink" x="0px" y="0px"
	 width="351px" height="323px" viewBox="0 0 351 323" style="enable-background:new 0 0 351 323;" xml:space="preserve">
<g>
	<g>
		<path style="fill:#E6E7E8;" d="M148.9,80.8c-19.1-0.6-37.6-10.8-57.8-11c-28.1-0.2-57.5,19.6-69,46.1
			c-16.4,37.9,14.9,77.7,45.4,97.6c27.9,18.3,60.4,17.9,88.5,33.7c25.8,14.5,56.3,24.2,86.1,18.6c42.2-7.9,81.9-23.9,90.2-72
			c7.9-45.5-30.1-85.5-67.5-106.3c-38.6-21.5-75.6-20.9-117.3-23c-15.7-0.8-32.5-4.4-47.3-4.1c-15.2,0.4-26.8,9.1-39.2,16.2"/>
		<g>
			<g>
				<path style="fill:#F0D0B3;stroke:#404041;stroke-linecap:round;stroke-linejoin:round;" d="M191.8,182.9
					c8-2.8,29.9-1.2,30.8-2.2c3.4-3.7,7.6-2.7,4.8,1.1c0,0,5.2-4.1,7.2-2.8c1.4,0.9,0,3.8-3.4,6.3c0,0,8.2-2.6,8.9,0.7
					c0.4,2.1-7.4,2.7-7.4,2.7s7,0.8,6.5,3.7c-0.4,2.1-4,1.4-8.9,0c0,0,4,2.4,2.5,4.4c-0.7,0.9-3.1,0.5-6-0.8
					c-5.4-2.3-23.4-1.4-33.6-3.2C183,191.1,183.8,185.8,191.8,182.9z"/>
				<path style="fill:#F0D0B3;stroke:#404041;stroke-linecap:round;stroke-linejoin:round;" d="M138.9,144.7
					c-1-6.6-5.6-20.3-5.6-20.3c-0.6-3.7,0-7.2,0.2-8.6c0.3-2.6-0.4-6.6-3-2.7c0,0,0.2-7.1-1.7-8.5c-1.4-1-1.6,0.5-2.8,4.5
					c0,0-1.1-6.7-4.5-6.2c-2.1,0.3,0,7.8,0,7.8s-3.1-6.3-5.7-4.8c-1.9,1,0.2,4.8,3.1,9c0,0-3.2-2.9-4.6-0.8c-0.6,1-0.1,3.1,2.7,6
					c3.7,3.8,4.3,4.8,4.3,4.8s4,16.2,9.7,23.1C136.6,154.9,140,151.3,138.9,144.7z"/>
				<path style="fill:#F0D0B3;stroke:#404041;stroke-linecap:round;stroke-linejoin:round;" d="M106.6,217.5l-21.2,9.3l-1.6-8.3
					L97.9,206c0,0,0.7,1.1,1.4,2.7C100,210.4,105,215.6,106.6,217.5z"/>
				<path style="fill:#F0D0B3;stroke:#404041;stroke-linecap:round;stroke-linejoin:round;" d="M122.4,231.6l-11.2,22.8l7.6,1.6
					l13.1-15.5c0,0-0.9-0.7-2.4-1.3C128,238.6,124,233,122.4,231.6z"/>
				<path style="fill:#C1B49A;stroke:#404041;stroke-linecap:round;stroke-linejoin:round;" d="M92.2,204.7c0,0,6.5,11.2,16.2,16.9
					l9.7-2.5c-0.4-0.5-1.1,8.7-1.3,9.5c0,0,8.9,12.8,17.9,15.6c0,0,18.5-5.6,22.1-20.8c0,0-36.2-28.5-45.3-41
					C111.6,182.4,102,185,92.2,204.7z"/>
				<path style="fill:#404041;stroke:#404041;stroke-linecap:round;stroke-linejoin:round;" d="M83.2,211.3c2.8,0,2.9,4.9,4.4,7.6
					c0.8,1.4,2.1,7.2,0.8,8.9c-2.3,2.8-4.5,2.8-6.1,2c-3.2-1.4-3.7-5.2-3.8-8.2C78.3,215.5,79.9,211.3,83.2,211.3z"/>
				<path style="fill:#404041;stroke:#404041;stroke-linecap:round;stroke-linejoin:round;" d="M115.8,247.4c-2.6,0.8-8,4.5-4.3,8.6
					c3.7,4,6.3,5.4,9.9,1.5c2.6-2.8,2.9-7.5,1.3-9.6C121.3,246,118.4,246.7,115.8,247.4z"/>
				<path style="fill:#FFFFFF;" d="M145,146.1c0,0-2.3-2.8-4.5-4.9c-1.5-1.4-7.8-0.2-11.3,4.6c0,0-0.6,2.4,1.4,11.5
					c0,0-7.8,4.3-14.4,10.4c-4,3.7-10,11.2-12,15.8c0,0,5.7,22.1,50.1,44.9c0,0,19.4-7.1,26.2-32.5c0,0,4.2-0.1,10.5-1.1
					c0,0,1.4-7.6-2.9-17.4C188.2,177.4,169.1,144.8,145,146.1z"/>
				<path style="fill:#1E4486;" d="M130.4,157.6c0,0,3.8,11,22.8,23.7c19.1,12.7,25.7,16.3,27.3,14.7c0,0,0.1,2.4-2.7,8.5
					c0,0-6.4,0.2-26.2-13c-13.2-8.8-28.9-24.8-27.2-30.3L130.4,157.6z"/>
				<path style="fill:#1E4486;" d="M108.5,176.4c-0.1,3.9,4.3,14.7,14,24.4c9.7,9.7,35.5,25.6,40.2,22.8c0,0-5.6,4.6-8.4,4.9
					c0,0-9.7-4.4-22.6-13.3S111.7,198,108,192.6c-3.7-5.5-3.7-7.9-3.7-7.9S108.5,174.8,108.5,176.4z"/>
				<path style="fill:#1E4486;" d="M112.2,172c0,0,7.9,17.3,23.9,29.8s25.5,18.5,31.7,17.3l4.7-5.5c0,0-11.3-1.8-27.9-15
					c-16.7-13.2-27.4-27.6-25.7-32.9C118.9,165.7,115.3,169.1,112.2,172z"/>
				<path style="fill:#1E4486;" d="M184.9,178.7c0,0-4,10.9,0.8,16.8c0,0,8.5-0.4,9.3-1.8c0.8-1.4-1.3-1.9-1-6.8
					c0.4-5.7,0.1-6.2,0.1-6.2L184.9,178.7z"/>
				<path style="fill:#1E4486;" d="M129.1,152.5l1.3,3.9c0,0,1.6-6.8,14.2-10.5l-4.5-5.1c0,0-3.2-2.3-8,1.6
					c-3.8,3.1-3.3,4.6-3.3,4.6L129.1,152.5z"/>
				<path style="fill:#F0D0B3;stroke:#404041;stroke-miterlimit:10;" d="M156.5,158c0,0-2.3,2.4-2.6,4.8c-0.3,2.4,5.5,8.6,12.1,10
					c0,0,2.4-0.8,3.2-1.8C169.2,170.9,162.4,165.4,156.5,158z"/>
				<path style="fill:#1E4486;" d="M152.1,156.2c0,0-5.1,7.7,1,14c5.1,5.2,12.7,7,19.5,3.1l-3.4-2.5c0,0-6.2,1.2-9.9-1.3
					c-2.3-1.5-7.8-6.4-3.7-10.5C155.6,159.2,153,156,152.1,156.2z"/>
				<path style="fill:none;stroke:#404041;stroke-linecap:round;stroke-linejoin:round;" d="M151.1,154.1c-2.9-4.3-8-10.3-10.7-13.1
					c0,0-2.3-2-6-0.1c-1.7,0.9-5.8,4.1-5.6,6.2c0.5,4.1,0.1,5.8,1.7,10.1c0,0-21.3,12.3-26.3,27.3c0,0,5.3,21,49.8,43.8
					c0,0,19.3-5.8,26.5-32.5c0,0,5.8,0.1,13.5-1.8c3-0.7-1.4-5.2,0.2-11.8c0.7-2.7-5.2-1.4-11.7-4.7
					C182.7,177.6,153.2,157.1,151.1,154.1z"/>
				<path style="fill:#D0D2D3;" d="M171.7,195.3c-3.9-1.8-10.7-7.3-10.7-7.3c-2.8,3.8-10.8,10.3-2.9,15.8
					C165.5,209,168.4,200.1,171.7,195.3"/>
				<g>
					<path style="fill:#F0D0B3;" d="M187,63.5c0,0-8.2,8.1-10.9,12.3c-1.6,2.5-6.1,10.4-6.1,10.4s-6.8-0.7-11.1,3
						c-1.9,1.6-6,7.1-6.1,10.9c-0.1,3.1,1.5,6.8,1.5,6.8s-12.7,11.8-13.6,18.1c-1,6.3,0.4,19.2,6,26.9c5.6,7.7,14.5,14.8,14.5,14.8
						c8.6,6.1,14.5,9.1,21.2,11.9c6.7,2.8,9.9,4.4,20.8,2.8c9.4-1.4,18-5,23.1-8.7c5-3.6,8.8-7.6,11-8.6c0,0-0.6,6.2,4.4,7.7
						c5,1.5,9.3-0.6,12.6-5.8c3.3-5.2,6.7-8.6,6.8-13.5c0.1-4.9-2.2-7.1-4.1-7.7l16.5-16.7L265.6,77l-42.7-15.3l-15.9-6L187,63.5z"
						/>
					<path style="fill:none;stroke:#404041;stroke-linecap:round;stroke-linejoin:round;" d="M187.8,63.5c-4,2.8-12,10.6-14.4,16.1
						c-2.4,5.5-9.8,19.1-15.6,24.1c-5.8,5-12.1,9.2-15.5,16.8c-3.5,7.6-3.3,14.5,2.2,26.2c4.6,9.8,11.1,16.4,22.4,24.1
						c8.8,6,21.3,11.9,33.2,10.9c13.1-1.2,21.2-5.7,28.1-10.3c4.9-3.2,9.4-8,9.4-8s-2.1,6.1,4.1,8.5c6.2,2.4,11.9-4.7,15.6-10.1
						c3.7-5.3,6.1-12.2,1.7-15.3c-4.3-3.1-6.8-1.5-11,2.6c-4.2,4.1-6.6,5.4-6.6,5.4s3.1-3,5.2-6.3c5-7.7,10.6-23.2,10.6-23.2"/>
					<path style="fill:none;stroke:#404041;stroke-linecap:round;stroke-linejoin:round;" d="M169.7,85.8
						c-4.9-0.5-10.1,1.6-13.4,6.3c-2.2,3.2-5.5,9.2-2,13.6"/>
					<path style="fill:#404041;stroke:#404041;stroke-linecap:round;stroke-linejoin:round;" d="M219.8,49.3
						c-4.6-1.1-12.5,1.6-15.8,2.8c-4.7,1.7-12.1,5.8-15,8.7c-2.8,2.9-4.1,5.7,3.1,2.8c7.1-2.9,15.1-4.9,19.6-5.2
						c0,0-6.4,2.6-11.1,4.1c-9.4,2.9-14.8,7.9-14.8,7.9s12.6-4.3,18.9-4.8c6.3-0.5,15.3,0.3,15.3,0.3s-8.5,1.6-14,3.3
						c-5.5,1.7-6.9,2.4-10.1,2.9c-3.2,0.5-4.6,1.2-0.7,2.5c3.8,1.3,14,1.5,21.9,1.2c7.9-0.3,15.6-3.6,15.6-3.6s-7.6,4.1-16,5.3
						c-8.4,1.2-9,1.4-10.7,2.1c-1.6,0.7,4.5,0.7,7.6,1.7c3.1,1,15.9,2.9,21,2.4c5.1-0.6,8.5-3.1,9-2.7c0.5,0.5-0.7,3.7-3.1,7.3
						c-2.4,3.6-2.6,10.6-2.2,16.5c0.4,5.9,2.8,10.2,3.7,11.3c0.8,1.1,1.4,1,0.2-3.7c-1.1-4.7,0.9-11.5,2.4-14.8
						c1.6-3.3,2.5-4.9,2.5-4.9s0.8,9.8,0.9,16.1c0.2,6.3,3,15.3,3.4,18.1c0.5,2.7,0.9,2.5,0.6-1.3c-0.3-3.8,1.7-14.8,2.1-18.2
						c0.4-3.4,0.9-1,0.7,1.2c-0.2,2.2,1,15.5,5.1,22.6c0,0-1.6-1.1-2.7-6.1c0,0-5.6,19.8-14.6,28.2c0,0,2.6-1.5,5.3-4.1
						c2.7-2.6,5.9-6.1,11-2.6c0,0,1.4,1,2,3.2c0,0,5.6-1.5,12.5-5.9c6.8-4.4,0,0,0,0l-3-54.9L219.8,49.3z"/>
					<path style="fill:none;stroke:#404041;stroke-linecap:round;stroke-linejoin:round;" d="M208.4,47.6c0,0,7.7,0.4,12.6,0.9
						c3.3,0.3,6.7-0.1,9.6-0.1c4.2-0.1,10.3,0,17.2,4.8c0,0,3.7,0,10.6,4.6c6.9,4.6,13.3,11.7,15.5,17.7c2.1,6.1,3.8,13.1,1.5,16.9
						c0,0,3.3,4.2,4.9,7.9c2,4.8,1.7,13.2,0.3,19.9c-1.3,6.7-8.9,19.6-14.8,23.7"/>
					<path style="fill:none;stroke:#404041;stroke-linecap:round;stroke-linejoin:round;" d="M251.5,151.8c1.6,0,3.9,2.2,1.3,6.3
						c-2.6,4.1-6.3,5.4-6.3,5.4"/>
					<path style="fill:#231F20;stroke:#404041;stroke-linecap:round;stroke-linejoin:round;" d="M279.9,93.2c0,0,3.9-3.2,5.7-6.6
						c1.5-2.8,1.2-5.9,1.2-5.9s-0.9,6.4-5.7,9.7c-2.8,1.9-4.2,1.5-4.2,1.5l-0.5,1.9L279.9,93.2"/>
					<path style="fill:#231F20;stroke:#404041;stroke-linecap:round;stroke-linejoin:round;" d="M277.1,93.2c0,0,11.2-1.1,11.5,10.9
						c0,0-1.3-9.1-11.4-9.9L277.1,93.2z"/>
					<path style="fill:none;stroke:#404041;stroke-linecap:round;stroke-linejoin:round;" d="M183.8,123.4c0,0-5.4,0.9-2.3,3.2"/>
					
						<ellipse transform="matrix(0.425 -0.9052 0.9052 0.425 -15.0816 292.758)" style="fill:#F7B7A4;" cx="222.9" cy="158.2" rx="7.3" ry="8.7"/>
					<path style="fill:#F7B7A4;" d="M168.6,117.9c-1.7,3.6-6.6,4.9-11,2.9c-4.4-2.1-6.5-6.7-4.8-10.3c1.7-3.6,6.6-4.9,11-2.9
						C168.2,109.6,170.3,114.2,168.6,117.9z"/>
					<path style="fill:#FFFFFF;stroke:#404041;stroke-linecap:round;stroke-linejoin:round;" d="M230.7,41.7
						c0,0,47.3-14.3,67.3,41.5c0,0,15.7,43-32.2,64.5c0,0-1.1-65.4-42-82.3l-16.9-6.3C206.9,59.1,216.3,46.3,230.7,41.7z"/>
					<path style="fill:#1E4486;stroke:#404041;stroke-linecap:round;stroke-linejoin:round;" d="M256,104c5.4,9.3,15.7-25.2-10-52.1
						c-17.2-18-29.4-20.7-37.4-20.6c-8,0.1-23.3,3.1-26.9,14.7c-3.6,11.6,3.1,17.8,3.1,17.8c8.4,1.5,21.6,1.8,33.3,9.2
						C229.9,80.2,251.7,96.5,256,104z"/>
					<path style="fill:none;stroke:#404041;stroke-linecap:round;stroke-linejoin:round;" d="M178.1,92.5c0,0,3.8,6,4.7,11.2"/>
					<path style="fill:none;stroke:#404041;stroke-linecap:round;stroke-linejoin:round;" d="M174.3,100c0,0,6-3.8,13.7-2.2"/>
					<path style="fill:none;stroke:#404041;stroke-linecap:round;stroke-linejoin:round;" d="M216,119.2c0,0,1,7-0.2,12.1"/>
					<path style="fill:none;stroke:#404041;stroke-linecap:round;stroke-linejoin:round;" d="M209.6,124.6c0,0,7-1,13.4,3.4"/>
					<path style="fill:#ED7499;stroke:#404041;stroke-linecap:round;stroke-linejoin:round;" d="M162.2,141.2c0,0-9.6,11.2-1.7,16.2
						c7,4.5,15-4.3,15-4.3S172.1,144.9,162.2,141.2z"/>
					<path style="fill:none;stroke:#404041;stroke-linecap:round;stroke-linejoin:round;" d="M158.5,139.4
						c7.7,3.2,12.4,5.3,19.2,17.8"/>
					<path style="fill:#ED7499;stroke:#404041;stroke-linecap:round;stroke-linejoin:round;" d="M169.4,145.6c0,0-3.1,0.6-5.3,5.1"
						/>
				</g>
			</g>
			<path style="fill:#FFFFFF;stroke:#404041;stroke-linecap:round;stroke-linejoin:round;" d="M154.3,37.3h-2.8v-2.8
				c0-1.5-1.2-2.8-2.8-2.8h-46c-1.5,0-2.8,1.2-2.8,2.8v22.2c0,1.5,1.2,2.8,2.8,2.8h46c1.5,0,2.8-1.2,2.8-2.8V54h2.8
				c1.5,0,2.8-1.2,2.8-2.8V40.1C157.1,38.6,155.8,37.3,154.3,37.3z"/>
			<path style="fill:#404041;" d="M109.6,55c0,0.8-0.6,1.4-1.4,1.4h-3.3c-0.8,0-1.4-0.6-1.4-1.4V36.3c0-0.8,0.6-1.4,1.4-1.4h3.3
				c0.8,0,1.4,0.6,1.4,1.4V55z"/>
			<line style="fill:none;stroke:#404041;stroke-linecap:round;stroke-linejoin:round;" x1="87.8" y1="14.8" x2="97.5" y2="25.6"/>
			<line style="fill:none;stroke:#404041;stroke-linecap:round;stroke-linejoin:round;" x1="122.7" y1="5.9" x2="123.9" y2="23.5"/>
			<line style="fill:none;stroke:#404041;stroke-linecap:round;stroke-linejoin:round;" x1="147.4" y1="26" x2="155.6" y2="13.8"/>
			<line style="fill:none;stroke:#404041;stroke-linecap:round;stroke-linejoin:round;" x1="96.5" y1="63.1" x2="84.7" y2="73"/>
			
				<line style="fill:none;stroke:#404041;stroke-linecap:round;stroke-linejoin:round;" x1="124.6" y1="69.1" x2="122.8" y2="84.5"/>
			
				<line style="fill:none;stroke:#404041;stroke-linecap:round;stroke-linejoin:round;" x1="152.1" y1="63.4" x2="158.9" y2="76.3"/>
		</g>
	</g>
	<g>
		<path style="fill:#EF5350;" d="M79.2,301c0,4.7-1.4,8.5-4.2,11.6c-2.8,3-6.5,4.5-11.2,4.5c-4.7,0-8.5-1.7-11.5-5
			c-3-3.4-4.5-7.7-4.5-13c0-5.5,1.5-9.8,4.6-13c3.1-3.2,7.2-4.8,12.2-4.8c3.5,0,6.4,0.7,8.8,2.2c2.2,1.3,3.3,2.8,3.3,4.5
			c0,0.8-0.3,1.5-0.8,2.2c-0.5,0.6-1.1,0.9-1.9,0.9c-0.5,0-1.8-0.6-4-1.7c-2-1.2-3.9-1.7-5.7-1.7c-2.9,0-5.1,1-6.8,3
			c-1.7,2-2.5,4.8-2.5,8.3c0,3.6,0.8,6.4,2.5,8.5c1.7,2.1,3.9,3.1,6.7,3.1c2.3,0,4.1-0.7,5.5-2.2c1.3-1.4,2-3.5,2.1-6.1h-3.3
			c-3.3,0-4.9-1-4.9-3c0-2.1,1.6-3.1,4.9-3.1h5.8C77.5,296.3,79.2,297.9,79.2,301z"/>
		<path style="fill:#EF5350;" d="M109.5,313.5c0,0.9-0.3,1.7-0.9,2.2c-0.6,0.6-1.4,0.9-2.4,0.9c-1.7,0-2.9-1.2-3.5-3.5l-1.1-3.6
			H87.9l-1.3,3.9c-0.7,2.1-1.8,3.2-3.2,3.2c-0.9,0-1.7-0.3-2.3-0.9c-0.6-0.6-0.9-1.4-0.9-2.2c0-1,0.1-1.7,0.3-2.1l9-24.8
			c1.2-3.2,3-4.8,5.5-4.8c2.4,0,4.2,1.4,5.2,4.2l8.8,25C109.3,311.9,109.5,312.7,109.5,313.5z M94.9,287.7l-5.3,15.6h9.9L94.9,287.7
			z"/>
		<path style="fill:#EF5350;" d="M149.3,313c0,1.1-0.3,1.9-1,2.6c-0.6,0.7-1.5,1-2.4,1c-1.9,0-3-1.4-3.3-4.2l-3-21l-0.1-0.1
			c-3.1,14-5.4,22.1-7,24.3c-0.5,0.6-1.3,0.9-2.6,0.9c-2,0-3.4-1.2-4-3.7l-5.6-21.5l-0.1,0.1l-3.2,20.4c-0.5,3.1-1.7,4.6-3.5,4.6
			c-2.2,0-3.2-1.2-3.2-3.5c0-0.6,0.1-1.4,0.3-2.4l4.2-23.8c0.6-3.3,2.2-4.9,4.8-4.9c2.4,0,4,1.4,4.8,4.2l5.8,21h0.1l5.3-21
			c0.7-2.8,2.3-4.2,4.8-4.2c2.8,0,4.5,1.7,5,5.2l3.8,24C149.2,312,149.3,312.7,149.3,313z"/>
		<path style="fill:#EF5350;" d="M172,313.1c0,2-1.7,3-5,3h-9.2c-1.8,0-3.1-0.3-3.7-0.9c-0.6-0.6-1-1.8-1-3.5v-24.4
			c0-1.8,0.3-3,1-3.8c0.6-0.8,1.9-1.2,3.8-1.2h8.9c3.3,0,5,1,5,3.1c0,2.1-1.7,3.1-5,3.1h-7.1v7.4h6.1c3.4,0,5,1.1,5,3.2
			c0,2-1.7,3-5,3h-6.1v7.8h7.3C170.3,309.9,172,311,172,313.1z"/>
		<path style="fill:#EF5350;" d="M225.8,299.3c0,5.3-1.5,9.6-4.5,13c-3,3.3-6.9,4.9-11.8,4.9c-4.9,0-8.9-1.6-12-4.9
			c-3-3.4-4.5-7.7-4.5-13c0-5.4,1.5-9.7,4.5-12.9c3-3.3,7-5,11.9-5c4.8,0,8.7,1.7,11.7,5C224.2,289.6,225.8,293.9,225.8,299.3z
			 M218.3,299.3c0-3.6-0.8-6.4-2.4-8.5c-1.6-2.1-3.8-3.1-6.5-3.1c-2.7,0-4.9,1-6.6,3.1c-1.6,2.1-2.4,4.9-2.4,8.5
			c0,3.5,0.8,6.2,2.4,8.3c1.6,2.1,3.8,3.1,6.6,3.1c2.6,0,4.8-1,6.4-3.1C217.5,305.5,218.3,302.8,218.3,299.3z"/>
		<path style="fill:#EF5350;" d="M254.7,285.1c0,0.7-0.2,1.5-0.6,2.6l-10,26.2c-0.7,1.9-1.9,2.9-3.5,2.9c-1.4,0-2.5-0.9-3.2-2.6
			l-10.6-26.7c-0.2-0.7-0.4-1.4-0.4-2c0-1,0.3-1.8,1-2.4c0.7-0.7,1.5-1,2.5-1c1.3,0,2.3,1,3,3l7.9,21.5l7.2-21.2
			c0.8-2.3,1.9-3.4,3.3-3.4C253.6,282,254.7,283,254.7,285.1z"/>
		<path style="fill:#EF5350;" d="M275.8,313.1c0,2-1.7,3-5,3h-9.2c-1.8,0-3.1-0.3-3.7-0.9c-0.6-0.6-1-1.8-1-3.5v-24.4
			c0-1.8,0.3-3,1-3.8c0.6-0.8,1.9-1.2,3.8-1.2h8.9c3.3,0,5,1,5,3.1c0,2.1-1.7,3.1-5,3.1h-7.1v7.4h6.1c3.4,0,5,1.1,5,3.2
			c0,2-1.7,3-5,3h-6.1v7.8h7.3C274.1,309.9,275.8,311,275.8,313.1z"/>
		<path style="fill:#EF5350;" d="M303.9,313.7c0,0.9-0.3,1.6-0.9,2.2c-0.6,0.6-1.3,0.9-2.2,0.9c-1.2,0-2.4-0.9-3.8-2.6l-10.2-12.9
			v10.2c0,3.4-1.1,5-3.3,5c-2.2,0-3.3-1.7-3.3-5v-24.2c0-1.8,0.3-3,1-3.8c0.6-0.8,1.9-1.2,3.8-1.2h6.2c3.9,0,7,0.9,9.2,2.8
			c2.2,1.8,3.3,4.4,3.3,7.5c0,5-2.9,8-8.8,9l6.9,7.8C303.2,311.1,303.9,312.5,303.9,313.7z M296.6,293.2c0-3.2-1.8-4.8-5.5-4.8h-4.3
			v9.6h4.2C294.8,298.1,296.6,296.5,296.6,293.2z"/>
	</g>
</g>
</svg>
